<?xml version="1.0" standalone="no"?>
<!DOCTYPE svg PUBLIC "-//W3C//DTD SVG 20010904//EN"
 "http://www.w3.org/TR/2001/REC-SVG-20010904/DTD/svg10.dtd">
<svg version="1.0" xmlns="http://www.w3.org/2000/svg"
 width="1024.000000pt" height="1024.000000pt" viewBox="0 0 1024.000000 1024.000000"
 preserveAspectRatio="xMidYMid meet">

<g transform="translate(0.000000,1024.000000) scale(0.100000,-0.100000)"
fill="#000000" stroke="none">
<path d="M4920 9482 c-25 -10 -207 -110 -405 -222 -198 -112 -479 -270 -625
-353 -146 -82 -368 -208 -495 -280 -126 -71 -302 -170 -390 -220 -88 -49 -272
-154 -410 -232 -592 -336 -795 -451 -1045 -589 -284 -157 -318 -183 -355 -274
-20 -46 -20 -87 -23 -2212 -1 -1430 1 -2183 8 -2219 13 -73 43 -132 90 -178
23 -23 184 -121 402 -245 199 -113 568 -323 818 -466 250 -142 552 -313 670
-379 519 -290 897 -504 1338 -756 222 -126 420 -236 440 -243 51 -18 142 -17
198 2 26 9 299 160 608 336 308 176 584 333 611 348 28 15 417 237 865 492
448 256 975 555 1170 665 195 111 375 217 400 235 29 22 58 58 80 99 l35 64 3
2197 c2 2163 2 2199 -17 2254 -37 105 -61 124 -367 294 -154 85 -371 206 -484
270 -755 428 -1062 601 -1620 912 -878 490 -985 550 -1068 599 -174 103 -198
112 -297 116 -70 2 -100 -1 -135 -15z m-669 -2195 c76 -37 141 -96 185 -168
l37 -59 1192 0 c1331 0 1243 5 1329 -71 48 -42 102 -139 92 -164 -5 -13 -248
-15 -2103 -17 l-2098 -3 -57 -27 c-114 -53 -203 -176 -215 -293 -2 -27 -8
-144 -11 -259 l-7 -210 -145 -67 c-80 -38 -149 -70 -153 -71 -4 -2 48 -287
117 -633 69 -347 175 -884 237 -1195 61 -311 115 -574 119 -585 14 -39 20 376
17 1330 -2 534 -1 1083 2 1220 6 237 7 252 29 295 32 61 77 106 137 138 l50
27 2220 0 2220 0 55 -31 c102 -58 154 -168 148 -316 l-3 -73 -147 0 c-82 0
-148 -2 -148 -6 0 -3 57 -48 127 -100 181 -134 246 -197 287 -279 67 -134 66
-68 16 -1330 -11 -267 -22 -559 -26 -650 -9 -266 -25 -331 -101 -420 -30 -34
-127 -100 -148 -100 -10 0 1 880 15 1215 19 461 30 801 31 935 1 160 -17 225
-85 298 -32 35 -489 387 -556 428 -16 10 -870 14 -870 5 0 -3 60 -49 133 -101
825 -590 836 -598 879 -655 72 -95 69 -15 66 -1366 l-3 -1214 -28 -57 c-33
-67 -80 -111 -157 -147 l-55 -26 -750 0 -750 0 -65 31 c-36 17 -213 123 -395
235 l-330 204 -785 5 -785 5 -57 28 c-64 31 -118 87 -150 152 -18 38 -28 46
-57 51 -105 16 -194 79 -229 161 -18 43 -78 329 -176 843 -20 102 -101 514
-181 915 -156 781 -158 791 -116 872 32 64 75 93 286 192 110 51 203 99 207
105 4 6 8 158 8 337 0 297 2 333 20 391 33 109 118 206 227 262 87 44 105 45
768 43 l630 -2 56 -28z"/>
<path d="M4765 5421 c-90 -42 -431 -251 -449 -274 -17 -24 -19 -48 -20 -336
l-1 -311 -568 0 c-376 0 -583 -4 -611 -11 -85 -21 -155 -107 -156 -189 0 -89
40 -155 121 -195 l47 -25 584 -2 583 -3 0 -342 c0 -331 1 -342 21 -369 12 -17
121 -87 258 -167 182 -107 245 -139 272 -139 23 0 64 16 122 49 216 122 1032
589 1074 615 80 50 78 40 78 506 l0 410 96 91 96 90 50 -39 c57 -45 108 -53
159 -23 55 32 59 57 59 325 0 274 -5 297 -71 330 -32 16 -53 16 -311 3 -152
-7 -285 -18 -295 -23 -84 -45 -79 -161 9 -219 21 -14 38 -27 38 -30 0 -3 -88
-87 -182 -172 l-47 -43 -423 250 c-239 141 -438 253 -458 256 -24 4 -48 0 -75
-13z m393 -635 c191 -112 392 -230 447 -262 l100 -60 3 -194 c2 -107 0 -213
-3 -235 l-6 -40 -301 -170 c-166 -93 -360 -205 -431 -247 -71 -43 -135 -78
-141 -78 -6 0 -35 16 -64 35 l-52 36 0 684 0 684 37 26 c21 14 44 25 51 25 7
0 169 -92 360 -204z"/>
</g>
</svg>
