<?xml version="1.0" standalone="no"?>
<!DOCTYPE svg PUBLIC "-//W3C//DTD SVG 20010904//EN"
 "http://www.w3.org/TR/2001/REC-SVG-20010904/DTD/svg10.dtd">
<svg version="1.0" xmlns="http://www.w3.org/2000/svg"
 width="1024.000000pt" height="1024.000000pt" viewBox="0 0 1024.000000 1024.000000"
 preserveAspectRatio="xMidYMid meet">

<g transform="translate(0.000000,1024.000000) scale(0.100000,-0.100000)"
fill="#1293DE" stroke="none">
<path d="M4880 9373 c-96 -66 -217 -149 -268 -187 -51 -37 -204 -129 -340
-205 -281 -157 -249 -139 -687 -381 -181 -101 -487 -271 -680 -378 -192 -107
-519 -288 -725 -402 -206 -114 -402 -222 -434 -240 -33 -19 -76 -35 -95 -36
-40 -2 -345 -167 -395 -213 -40 -37 -66 -97 -66 -156 0 -49 27 -126 49 -139 8
-5 11 -565 11 -2031 l0 -2023 -30 -57 c-65 -124 -26 -238 106 -305 27 -14 108
-58 180 -98 78 -43 138 -70 148 -66 16 6 40 -7 346 -176 96 -54 275 -152 398
-219 122 -67 242 -132 265 -145 23 -13 312 -171 642 -351 998 -545 1255 -690
1590 -897 140 -87 164 -99 196 -95 22 3 94 41 190 99 305 188 450 270 1394
786 352 192 703 384 780 427 598 330 1058 576 1072 573 10 -1 23 0 28 3 6 4
84 46 175 94 207 111 215 116 245 176 37 73 30 149 -20 223 l-25 37 0 2008 0
2008 35 67 c51 98 44 176 -23 247 -46 48 -392 241 -408 228 -7 -6 -45 9 -105
42 -174 96 -802 441 -1089 599 -157 87 -402 221 -545 300 -946 518 -1117 616
-1289 739 -273 195 -366 253 -410 258 -39 4 -51 -2 -216 -114z m318 -643 l102
-60 42 21 c24 12 60 33 80 46 l38 23 227 -129 c201 -113 952 -530 1243 -690
253 -139 787 -432 1040 -569 l275 -150 5 -128 5 -128 100 -84 c55 -46 115 -97
132 -113 l33 -29 0 -1734 0 -1734 -87 -73 c-49 -41 -109 -93 -135 -118 l-48
-44 0 -123 0 -124 -37 -23 c-21 -13 -175 -97 -343 -187 -168 -90 -318 -171
-335 -180 -36 -20 -184 -101 -535 -293 -719 -393 -1274 -700 -1417 -783 -50
-30 -95 -54 -100 -54 -5 0 -44 22 -88 50 -44 27 -86 50 -94 50 -8 0 -59 -25
-112 -55 l-98 -55 -93 55 c-51 30 -99 55 -107 55 -9 0 -52 -23 -98 -50 l-82
-51 -43 22 c-24 12 -151 81 -283 154 -132 73 -343 189 -470 257 -126 69 -324
177 -440 240 -412 226 -625 343 -1015 555 -217 118 -423 231 -457 250 l-63 34
0 124 0 124 -135 123 -135 122 0 1737 0 1738 135 112 135 112 0 126 0 126 133
69 c115 60 311 167 942 516 286 158 1553 864 1627 907 l78 45 71 -41 c39 -23
78 -41 88 -41 9 0 57 24 106 54 50 30 95 55 101 55 5 1 56 -26 112 -59z"/>
<path d="M4184 7839 c-44 -27 -85 -49 -91 -49 -9 0 -13 -21 -13 -69 0 -118 4
-126 79 -167 36 -20 74 -44 84 -52 15 -13 19 -13 35 0 9 8 50 34 90 57 l72 42
0 94 c0 52 -3 95 -7 95 -5 0 -45 22 -89 48 l-82 49 -78 -48z"/>
<path d="M4743 7836 l-93 -51 3 -94 2 -94 89 -53 c77 -47 91 -52 105 -40 9 7
49 32 89 55 l72 42 0 94 c0 52 -4 95 -8 95 -7 0 -75 39 -142 82 -24 15 -28 14
-117 -36z"/>
<path d="M5278 7836 l-87 -51 -1 -96 c0 -96 0 -97 28 -108 15 -6 54 -29 86
-50 l58 -39 89 52 89 51 0 95 0 95 -57 33 c-32 17 -71 40 -88 51 l-30 19 -87
-52z"/>
<path d="M5887 7836 l-87 -51 2 -94 3 -94 85 -53 c60 -37 89 -50 100 -43 8 5
47 28 85 51 l70 43 3 97 c2 86 1 97 -16 102 -10 3 -49 26 -87 51 -37 25 -68
45 -69 44 -1 -1 -40 -24 -89 -53z"/>
<path d="M4935 7234 l-90 -52 -3 -91 -3 -90 88 -57 88 -57 40 23 c22 13 64 38
93 57 l53 33 -3 91 -3 92 -85 51 -85 52 -90 -52z"/>
<path d="M5453 7250 c-34 -19 -75 -43 -92 -52 l-31 -17 0 -93 0 -93 82 -50
c46 -28 86 -51 90 -53 4 -2 48 22 98 53 l90 58 0 87 0 88 -87 54 -88 54 -62
-36z"/>
<path d="M5963 7232 l-93 -54 0 -89 0 -88 43 -29 c23 -16 63 -41 89 -56 l46
-27 91 57 91 56 0 88 0 88 -87 54 -88 54 -92 -54z"/>
<path d="M6523 7229 l-83 -50 0 -92 1 -92 86 -53 86 -53 88 53 89 53 0 98 c0
53 -4 97 -8 97 -5 0 -40 20 -78 45 -38 24 -76 44 -84 44 -8 0 -52 -23 -97 -50z"/>
<path d="M3172 7255 c-29 -8 -67 -22 -84 -31 -59 -30 -134 -112 -164 -177
l-29 -62 2 -237 3 -237 -64 -45 c-71 -51 -111 -97 -149 -171 -34 -69 -47 -146
-47 -287 0 -70 -4 -118 -10 -118 -5 0 -41 -30 -80 -66 -82 -78 -135 -173 -151
-273 -11 -70 -7 -132 37 -576 13 -137 45 -459 70 -715 77 -790 82 -844 97
-886 64 -178 207 -311 387 -359 47 -13 347 -15 2121 -15 1357 0 2085 3 2120
10 94 18 194 73 269 148 71 71 107 130 137 227 17 57 18 128 18 1415 l0 1355
-22 70 c-28 88 -69 154 -141 222 -63 61 -184 124 -270 142 -37 8 -456 11
-1362 11 l-1310 0 0 153 c0 83 -5 181 -11 217 -20 124 -101 221 -226 272 -58
23 -60 23 -573 25 -422 2 -525 0 -568 -12z m4127 -2347 c-1 -1119 -3 -1302
-14 -1238 -36 203 -121 738 -175 1105 -34 226 -67 448 -75 495 -32 208 -133
346 -319 434 -39 19 -95 39 -124 45 -36 8 -349 11 -988 11 l-936 0 -51 45
c-28 24 -76 58 -107 74 -115 61 -109 61 -842 61 l-668 0 0 140 0 140 2150 0
2150 0 -1 -1312z m-2307 119 c270 -178 655 -431 948 -621 344 -224 460 -301
460 -307 0 -4 -28 -25 -62 -46 -109 -69 -710 -453 -778 -498 -36 -23 -137 -88
-225 -145 -245 -158 -288 -186 -449 -292 -82 -54 -151 -96 -154 -93 -3 3 0 17
7 32 22 47 240 667 241 683 0 3 -379 5 -843 5 l-842 0 -55 27 c-272 134 -277
537 -8 680 l43 23 848 3 c466 1 847 4 847 6 0 4 -129 377 -199 574 -28 78 -49
142 -46 142 2 0 123 -78 267 -173z"/>
<path d="M3527 2750 c-26 -16 -65 -39 -87 -50 l-40 -20 0 -93 1 -92 89 -53 90
-52 90 56 90 55 0 87 0 87 -86 50 c-47 28 -89 51 -93 53 -4 1 -28 -11 -54 -28z"/>
<path d="M4035 2727 c-50 -29 -90 -58 -89 -64 1 -7 2 -48 3 -90 l2 -78 85 -52
85 -53 89 53 89 52 0 83 c1 45 2 85 4 88 2 6 -162 113 -173 113 -3 0 -46 -23
-95 -52z"/>
<path d="M4590 2739 c-36 -22 -75 -44 -87 -49 -21 -9 -23 -16 -23 -99 l0 -90
90 -55 90 -56 90 56 90 55 0 87 0 88 -85 52 c-47 28 -89 52 -93 51 -4 0 -36
-18 -72 -40z"/>
<path d="M5263 2727 c-60 -33 -91 -57 -88 -65 3 -8 5 -49 5 -92 l0 -77 85 -51
86 -51 89 55 90 56 0 87 0 86 -82 50 c-46 28 -85 51 -88 52 -3 1 -47 -21 -97
-50z"/>
<path d="M5883 2727 c-60 -33 -91 -57 -88 -65 3 -8 5 -48 5 -90 l0 -77 86 -52
86 -53 87 54 86 53 3 89 3 90 -43 24 c-24 13 -62 36 -85 52 -23 15 -43 28 -45
28 -2 -1 -45 -24 -95 -53z"/>
<path d="M6488 2728 l-88 -50 0 -91 1 -92 89 -52 90 -53 90 56 90 56 0 87 0
87 -88 52 c-49 29 -90 52 -93 51 -2 -1 -43 -23 -91 -51z"/>
</g>
</svg>
