<?xml version="1.0" standalone="no"?>
<!DOCTYPE svg PUBLIC "-//W3C//DTD SVG 20010904//EN"
 "http://www.w3.org/TR/2001/REC-SVG-20010904/DTD/svg10.dtd">
<svg version="1.0" xmlns="http://www.w3.org/2000/svg"
 width="1024.000000pt" height="1024.000000pt" viewBox="0 0 1024.000000 1024.000000"
 preserveAspectRatio="xMidYMid meet">

<g transform="translate(0.000000,1024.000000) scale(0.100000,-0.100000)"
fill="#000000" stroke="none">
<path d="M4840 9237 c-278 -154 -485 -268 -1240 -682 -228 -125 -530 -291
-670 -368 -229 -126 -571 -312 -800 -436 -96 -53 -74 -13 -209 -361 -172 -442
-217 -555 -444 -1125 -129 -324 -285 -717 -347 -872 l-111 -282 54 -138 c75
-187 241 -608 377 -953 62 -157 159 -404 217 -550 58 -146 159 -402 224 -570
66 -168 128 -323 138 -345 18 -37 36 -49 272 -180 140 -76 295 -162 344 -190
50 -29 187 -105 305 -170 118 -65 319 -175 445 -245 127 -70 388 -214 580
-320 329 -182 986 -547 1085 -604 25 -14 51 -26 59 -26 8 0 172 87 365 194
193 106 486 268 651 358 165 91 397 219 515 285 229 128 1066 591 1365 755 99
54 185 104 191 111 6 7 35 73 64 147 82 213 189 484 355 905 85 215 240 608
345 875 106 267 207 525 227 573 l34 88 -330 827 c-342 857 -483 1213 -617
1560 l-79 203 -50 28 c-149 84 -1228 680 -1585 876 -529 291 -1060 583 -1151
635 -39 22 -72 40 -73 40 -1 0 -47 25 -101 55 -55 30 -107 55 -115 55 -8 -1
-139 -70 -290 -153z m1005 -649 c380 -209 879 -485 1110 -613 544 -301 827
-456 893 -489 60 -30 57 -25 160 -286 182 -459 434 -1094 616 -1553 113 -284
206 -525 206 -535 0 -17 -58 -166 -390 -1012 -84 -213 -448 -1128 -506 -1271
-19 -48 -34 -70 -52 -79 -15 -6 -152 -81 -307 -167 -154 -85 -370 -205 -480
-265 -110 -61 -234 -130 -275 -153 -41 -23 -167 -93 -280 -155 -342 -189
-1188 -659 -1299 -723 l-104 -59 -45 21 c-24 12 -209 113 -411 225 -382 213
-1014 563 -1848 1026 l-493 273 -269 676 c-148 372 -320 802 -381 956 -62 154
-120 303 -130 330 -10 28 -46 120 -79 204 -34 85 -61 165 -61 176 0 12 161
426 358 921 198 494 403 1011 458 1148 54 138 106 258 114 268 8 9 110 68 225
131 116 62 325 177 465 254 140 77 352 193 470 258 118 65 276 152 350 193 74
41 227 125 340 187 113 61 297 163 410 225 378 209 515 280 530 274 8 -3 326
-176 705 -386z"/>
<path d="M5035 8303 c-116 -61 -157 -187 -97 -304 29 -59 71 -93 135 -110 52
-14 102 -4 165 31 141 81 145 276 8 368 -43 28 -56 32 -115 32 -40 -1 -78 -7
-96 -17z"/>
<path d="M3670 7399 c-114 -23 -230 -114 -280 -221 -32 -68 -49 -164 -50 -270
l0 -68 1730 0 c1008 0 1730 4 1730 9 0 5 -8 13 -17 17 -10 5 -333 11 -718 14
l-700 5 -64 35 c-73 39 -114 86 -198 228 -74 123 -139 194 -211 229 l-57 28
-560 2 c-308 0 -580 -3 -605 -8z"/>
<path d="M3188 6651 c-151 -49 -268 -177 -297 -323 -37 -193 -198 -1404 -188
-1414 9 -10 57 30 62 51 2 11 29 160 60 330 80 443 99 526 148 624 72 149 201
263 367 327 l75 29 2108 3 2107 2 0 45 c0 78 -35 150 -109 225 -36 36 -88 77
-116 91 l-50 24 -2055 2 c-1970 2 -2057 1 -2112 -16z"/>
<path d="M3500 6109 c-117 -12 -208 -59 -294 -149 -88 -92 -116 -164 -161
-410 -39 -218 -252 -1359 -331 -1775 -55 -287 -59 -356 -25 -432 27 -62 102
-135 169 -166 47 -22 52 -22 727 -24 l680 -3 35 30 c42 35 53 25 -146 140
-139 79 -170 103 -193 147 -8 15 -11 208 -11 665 0 619 1 644 20 675 13 21 31
35 57 42 25 7 281 11 749 11 l711 0 7 53 c3 28 6 96 6 150 0 91 2 100 25 122
40 41 71 33 192 -49 59 -41 233 -159 386 -262 153 -103 287 -198 298 -212 21
-27 25 -63 9 -92 -5 -10 -106 -83 -222 -161 -246 -164 -476 -320 -532 -361
-51 -37 -89 -36 -127 1 -32 32 -32 37 -29 182 1 78 -1 99 -15 112 -15 15 -64
17 -523 17 -279 0 -513 -4 -520 -8 -9 -7 -12 -97 -10 -416 l3 -408 175 -102
c224 -130 228 -132 251 -177 56 -110 -18 -236 -132 -226 -36 3 -69 18 -138 61
l-91 58 -40 -29 c-22 -15 -40 -30 -40 -33 0 -3 42 -28 93 -56 50 -28 162 -90
247 -138 l154 -87 256 172 c140 95 269 182 287 194 18 11 32 22 33 25 0 5 -67
48 -405 258 -214 133 -256 165 -274 215 -16 42 -13 114 6 154 21 44 82 89 132
98 52 9 83 -6 270 -124 150 -94 600 -375 765 -476 44 -27 88 -57 98 -67 21
-21 24 -77 6 -100 -7 -8 -74 -56 -148 -105 -129 -86 -212 -143 -713 -488
l-218 -149 38 -23 c21 -13 44 -23 51 -23 16 0 46 20 467 311 187 129 419 289
515 355 l175 119 335 5 c320 5 338 6 392 28 74 30 150 102 182 172 18 40 48
179 111 525 300 1647 355 1957 355 1993 0 93 -59 186 -140 221 l-50 21 -1942
3 c-1069 1 -1968 -1 -1998 -4z"/>
<path d="M2015 5304 c-83 -31 -134 -109 -135 -206 0 -70 12 -103 53 -147 137
-145 380 -50 380 149 0 155 -150 258 -298 204z"/>
<path d="M8063 5304 c-60 -22 -119 -91 -134 -159 -46 -206 192 -348 356 -213
94 78 104 225 21 316 -54 60 -165 85 -243 56z"/>
<path d="M5045 2135 c-49 -17 -111 -84 -125 -134 -64 -232 192 -389 361 -221
84 84 88 201 11 290 -63 74 -154 98 -247 65z"/>
</g>
</svg>
