<?xml version="1.0" standalone="no"?>
<!DOCTYPE svg PUBLIC "-//W3C//DTD SVG 20010904//EN"
 "http://www.w3.org/TR/2001/REC-SVG-20010904/DTD/svg10.dtd">
<svg version="1.0" xmlns="http://www.w3.org/2000/svg"
 width="220.000000pt" height="60.000000pt" viewBox="0 0 220.000000 60.000000"
 preserveAspectRatio="xMidYMid meet">

<g transform="translate(0.000000,60.000000) scale(0.100000,-0.100000)"
fill="#000000" stroke="none">
<path d="M636 529 c-51 -40 -26 -109 60 -166 13 -8 26 -23 29 -34 4 -12 16
-19 32 -19 22 0 24 3 19 28 -4 15 -31 49 -61 77 -30 28 -55 55 -55 62 0 19 30
23 54 8 20 -13 25 -13 42 0 18 15 18 16 -9 40 -34 31 -75 32 -111 4z"/>
<path d="M2058 530 c-51 -40 -38 -97 36 -150 25 -18 48 -41 51 -52 6 -17 35
-25 48 -12 13 14 -19 67 -64 105 -27 22 -49 47 -49 54 0 21 31 27 50 10 15
-14 21 -14 39 -3 27 17 26 22 -5 47 -34 26 -74 27 -106 1z"/>
<path d="M6 524 c-3 -9 -6 -46 -6 -84 0 -102 -5 -100 219 -100 132 0 191 -4
199 -12 17 -17 16 -182 -1 -196 -6 -6 -27 -12 -46 -14 -21 -2 -39 -11 -49 -25
l-14 -23 80 0 c70 0 83 3 92 19 13 25 13 271 0 291 -8 12 -45 16 -210 18
l-200 3 -6 26 c-10 37 7 58 51 61 35 3 64 23 65 45 0 4 -38 7 -84 7 -67 0 -85
-3 -90 -16z"/>
<path d="M927 533 c-9 -15 -66 -168 -73 -195 l-6 -28 111 0 c61 0 111 4 111 9
0 5 -6 24 -14 42 -7 19 -26 67 -40 107 -26 66 -30 72 -56 72 -16 0 -31 -3 -33
-7z m53 -119 c11 -26 20 -48 20 -50 0 -2 -18 -4 -41 -4 -29 0 -40 4 -36 13 2
6 10 29 18 50 7 20 14 37 16 37 1 0 11 -21 23 -46z"/>
<path d="M1150 425 l0 -115 25 0 c21 0 25 5 25 29 0 26 4 29 44 35 66 10 95
57 74 117 -14 39 -35 49 -107 49 l-61 0 0 -115z m104 59 c9 -3 16 -16 16 -29
0 -17 -7 -24 -27 -28 -35 -7 -43 -2 -43 27 0 35 17 44 54 30z"/>
<path d="M1380 441 c0 -111 4 -131 30 -131 14 0 18 13 23 83 12 145 11 147
-23 147 l-30 0 0 -99z"/>
<path d="M1510 425 l0 -115 25 0 c22 0 25 4 25 35 l0 35 55 0 c52 0 55 1 55
25 0 24 -3 25 -55 25 -54 0 -55 0 -55 30 0 30 1 30 55 30 52 0 55 1 55 25 0
25 -1 25 -80 25 l-80 0 0 -115z"/>
<path d="M1730 425 l0 -115 25 0 c23 0 24 4 27 63 l3 62 44 -62 c42 -61 45
-63 87 -63 l44 0 0 115 0 115 -25 0 c-24 0 -24 -1 -27 -96 l-3 -97 -62 97
c-52 80 -66 96 -88 96 l-25 0 0 -115z"/>
</g>
</svg>
